<?xml version="1.0" encoding="UTF-8"?>
<svg id="Layer_1" data-name="Layer 1" xmlns="http://www.w3.org/2000/svg" viewBox="0 0 122.23 122.21">
  <defs>
    <style>
      .cls-1 {
        fill: #fff;
      }
    </style>
  </defs>
  <path class="cls-1" d="M63.73,104.33l-3.67-4.1H.16c-.15-.43-.15-.77-.1-1.35h7.38s0-75.44,0-75.44l-7.38-.03c-.05-.52-.05-.91.1-1.31h59.87s3.69-4.13,3.69-4.13H.16c-.16-.44-.16-.83-.1-1.34h53.82s11.37-.05,11.37-.05C80.55,2.21,101.86-3.16,122.18,1.93v1.75c-21.21-5.67-43.74.94-58.66,17-8.98,9.66-14.67,22.09-15.74,35.33-1.57,17.73,4.95,35.08,17.56,47.46,14.94,14.69,36.54,20.54,56.86,15.12l-.03,1.74c-20.48,5.09-41.64-.29-56.94-14.63H.17c-.2-.39-.19-.81-.07-1.31h54.29s9.34-.07,9.34-.07ZM12.91,23.43h-3.9v75.48h3.9V23.43ZM14.49,23.42l-.02,75.48h3.91s.02-75.48.02-75.48h-3.91ZM20.04,23.42v75.48s3.87,0,3.87,0V23.42s-3.87,0-3.87,0ZM25.54,23.42l-.05,75.48h3.89s.05-75.48.05-75.48h-3.89ZM31.04,23.42v75.48s3.85,0,3.85,0V23.42s-3.85,0-3.85,0ZM36.52,23.41v75.48s3.88,0,3.88,0V23.41s-3.88,0-3.88,0ZM45.9,23.42h-3.8v75.48h3.8V23.42ZM51.49,35.65v-12.21s-3.91,0-3.91,0l.02,22.97c1.22-3.82,2.27-7.24,3.89-10.76ZM58.96,23.43h-5.87s.03,8.83.03,8.83c1.89-3.2,3.64-5.95,5.84-8.83ZM51.47,98.85l.02-12.28c-1.68-3.48-2.72-7.04-3.92-10.86l.02,23.2,3.87-.05ZM58.89,98.82c-2.23-3.04-3.96-5.67-5.77-8.82l-.03,8.89,5.8-.07Z"/>
  <path class="cls-1" d="M55.83,78.27c5.71,16.85,19.34,29.85,36.36,34.74,9.81,2.82,20.14,2.74,29.97-.07l.05,1.67c-16.89,4.84-35.14,1.35-49.05-9.35-21.77-16.73-28.05-46.82-14.93-70.8S97.13.61,122.17,7.61c.05.56.05,1.08-.03,1.71-23.84-6.85-48.75,3.06-61.49,24.26-3.31,5.5-5.61,11.49-6.75,17.85-1.59,8.95-1.02,18.14,1.93,26.84Z"/>
  <path class="cls-1" d="M98.48,108.86c8,1.44,16.01.81,23.66-1.64.08.6.08,1.13.02,1.71-17.45,5.44-36.27,1.23-49.55-11.33-5.35-5.06-9.54-11.15-12.22-18.01-4.63-11.88-4.69-24.99-.01-36.86,4.72-11.97,13.93-21.71,25.61-27.12s24.2-5.98,36.12-2.32c.11.61.11,1.12.04,1.78-10.23-3.33-21.3-3.25-31.45.41-14.47,5.21-25.63,17-30.14,31.7-2.76,9-2.75,18.68-.06,27.67,5.23,17.52,19.9,30.75,37.98,34.01Z"/>
  <path class="cls-1" d="M76.32,91.21c11.93,12.16,29.84,16.19,45.78,10.2.13.54.13,1.09.05,1.76-12.44,4.43-26.26,3.21-37.59-3.41-17-9.93-25.53-29.66-21.03-48.85,3.26-13.88,13.14-25.55,26.4-31.03,10.25-4.24,21.71-4.49,32.16-.8.11.62.12,1.14.1,1.84-16.55-6.27-35.15-1.74-47.04,11.39-7.64,8.45-11.75,19.59-11.12,31.1.57,10.47,4.93,20.33,12.28,27.82Z"/>
  <path class="cls-1" d="M122.15,95.48c.06.65.06,1.22.03,1.83-15.56,6.3-33.01,2.51-44.27-9.96-12.94-14.32-13.49-35.97-1.2-51.02,11.02-13.49,29.43-17.96,45.49-11.36v1.85c-15.76-7-34.09-2.33-44.71,11.22-4.98,6.35-7.81,14.1-7.99,22.19-.46,20.03,15.05,37.03,35.04,38.33,6.03.39,11.95-.59,17.62-3.08Z"/>
  <path class="cls-1" d="M90.66,88.67c9.72,5.8,21.59,6.02,31.49.73l.04,1.85c-12.7,6.32-27.85,4.18-38.16-5.44-13.39-12.5-14.38-33.33-2.22-47.02,6.11-6.88,14.79-11.07,24.16-11.28,5.68-.13,11.09.93,16.16,3.52.07.59.07,1.17.02,1.9-10.73-5.76-23.73-4.97-33.65,2.1-8.96,6.39-14.17,16.93-13.51,27.97.63,10.6,6.49,20.22,15.66,25.69Z"/>
  <path class="cls-1" d="M107.71,87.7c5.28-.13,10.05-1.78,14.45-4.72l.06,1.93c-3.78,2.47-7.94,3.85-12.46,4.29-8.82.87-17.35-2.37-23.33-8.76-9.62-10.27-10.23-26.05-1.37-37.02,5.16-6.38,12.8-10.27,21.1-10.47,5.75-.14,11.16,1.24,16.01,4.36l.03,2.04c-10.98-7.65-25.71-5.99-34.75,3.87-4.83,5.26-7.43,12.33-6.97,19.49.92,14.27,12.89,25.33,27.23,24.99Z"/>
  <path class="cls-1" d="M86.36,56.94c-2.61,12.81,6.96,24.74,19.93,25.29,5.86.25,11.45-2.07,15.79-6.3.17.63.2,1.43.09,2.17-6.48,5.78-15.72,7.45-24.01,3.99-7.39-3.08-12.85-10.14-13.77-18.5-1.24-11.25,6.15-21.88,17.23-24.55,7.32-1.76,14.9.09,20.54,5.11.11.67.08,1.53-.06,2.21-4.66-4.55-10.77-6.89-17.18-6.22-9.14.95-16.71,7.71-18.56,16.8Z"/>
  <path class="cls-1" d="M95.37,71.48c6.11,6.81,16.38,7.04,22.78.59l1.16,1.18c-6.92,7.05-18.22,6.81-24.88-.28-6.67-7.11-6.18-18.35,1.26-24.86,6.8-5.95,17.24-5.64,23.58.88l-1.09,1.2c-3.93-3.77-9.1-5.5-14.63-4.27-4.65,1.03-8.87,4.4-10.9,9.12-2.36,5.49-1.33,11.93,2.71,16.44Z"/>
  <rect class="cls-1" x="32.34" y="77.49" width="1.35" height="66.04" transform="translate(-77.49 143.52) rotate(-90)"/>
  <rect class="cls-1" x="32.32" y="-32.31" width="1.39" height="66.02" transform="translate(32.31 33.72) rotate(-89.99)"/>
  <path class="cls-1" d="M101.71,52.54c-2.97,1.84-4.71,4.94-4.82,8.23s1.48,6.62,4.27,8.6c4.07,2.89,9.47,2.46,13.05-1.11.47.33.83.67,1.21,1.13-3.72,3.82-9.52,4.65-14.19,2.03-4.45-2.49-6.91-7.74-5.7-12.97,1.11-4.77,5.28-8.67,10.45-9.05,3.61-.27,6.96.88,9.47,3.51l-1.18,1.18c-3.36-3.39-8.44-4.11-12.57-1.55Z"/>
  <rect class="cls-1" x="32.34" y="-26.81" width="1.36" height="66.04" transform="translate(26.81 39.23) rotate(-90)"/>
  <rect class="cls-1" x="32.32" y="82.99" width="1.41" height="66.04" transform="translate(-82.99 149.01) rotate(-89.99)"/>
  <rect class="cls-1" x="0" y="11.09" width="66.03" height="1.4"/>
  <rect class="cls-1" x="0" y="120.85" width="66.03" height="1.33"/>
  <path class="cls-1" d="M110.43,57.99c-1.97-2-4.74-1.96-6.61-.21s-1.92,4.8-.1,6.6,4.72,1.92,6.68-.05l1.17,1.16c-2.46,2.6-6.53,2.58-8.96.18s-2.55-6.4-.1-8.95,6.66-2.56,9.05.07l-1.13,1.21Z"/>
</svg>